# File created by Blade
# Date/Time:  Thu Jan 22 16:52:56 2015
# Frame Rate: 120.000 fps
#------------------------------------------------------
:FULLY-SPECIFIED
:DEGREES
2390
root 2.889800 12.818263 -3.015759 -27.478673 6.244731 4.350434
RightUpLeg -81.847220 -5.526295 -13.000797
RightLeg 136.861640 -0.000000 -0.000000
RightFoot -28.467149 -16.803661 17.082791
RightToeBase -5.622632 -0.000000 0.000000
LeftUpLeg -79.882400 -4.801207 -6.584626
LeftLeg 137.423931 -0.000000 -0.000000
LeftFoot -24.099254 15.757748 -15.951272
LeftToeBase -16.809302 -0.000000 0.000000
Spine 85.718256 0.553511 1.881748
RightShoulder 4.649342 -16.011483 -11.540112
RightArm 44.905517 -22.933412 50.439046
RightForeArm 39.639675 0.000000 22.608612
RightHand 10.830202 -0.000000 -1.041196
RightHandThumb1 -24.326973 -0.000000 -32.862282
LeftShoulder 30.805551 6.835578 33.696957
LeftArm 37.128519 2.380486 -78.694128
LeftForeArm 14.082917 0.000000 21.568564
LeftHand -13.101354 -0.000000 -2.609620
LeftHandThumb1 -26.253704 0.000000 33.147579
Head 17.662876 -12.316237 10.065690
2391
root 2.898057 12.989654 -3.091228 -26.182911 6.321356 4.635171
RightUpLeg -81.522413 -5.412102 -14.151036
RightLeg 136.813383 -0.000000 -0.000000
RightFoot -28.526644 -16.746093 17.463283
RightToeBase -6.042338 -0.000000 0.000000
LeftUpLeg -79.289292 -5.018898 -6.158046
LeftLeg 137.597511 -0.000000 -0.000000
LeftFoot -25.074212 15.236650 -18.468886
LeftToeBase -14.436694 -0.000000 0.000000
Spine 86.099179 0.525260 1.705379
RightShoulder 4.614299 -15.665661 -11.425538
RightArm 44.576793 -22.230564 50.084943
RightForeArm 40.134322 -0.000000 23.553387
RightHand 11.178430 -0.000000 -0.494409
RightHandThumb1 -24.326973 -0.000000 -32.862282
LeftShoulder 30.861414 6.417513 34.053325
LeftArm 37.150553 1.869831 -78.398217
LeftForeArm 13.501092 -0.000000 22.124668
LeftHand -12.381661 0.000000 -3.380228
LeftHandThumb1 -26.253704 0.000000 33.147579
Head 16.185451 -12.200081 10.272824
2392
root 2.865024 13.118590 -3.179266 -24.651069 5.949230 4.573750
RightUpLeg -81.523634 -5.023074 -14.425015
RightLeg 136.409023 -0.000000 -0.000000
RightFoot -28.476091 -16.902693 17.774279
RightToeBase -6.101250 -0.000000 0.000000
LeftUpLeg -79.106387 -4.826199 -5.063452
LeftLeg 137.596559 -0.000000 -0.000000
LeftFoot -28.178733 13.109231 -21.759543
LeftToeBase -10.246642 -0.000000 0.000000
Spine 86.127839 0.618888 1.972658
RightShoulder 4.571837 -15.366261 -11.424529
RightArm 44.097062 -21.443348 49.986379
RightForeArm 39.884084 -0.000000 24.614476
RightHand 11.257538 -0.000000 0.270691
RightHandThumb1 -24.326973 -0.000000 -32.862282
LeftShoulder 30.892404 6.218035 34.202860
LeftArm 37.168018 1.398724 -77.962246
LeftForeArm 12.705467 -0.000000 22.819639
LeftHand -11.769854 -0.000000 -4.051860
LeftHandThumb1 -26.253704 0.000000 33.147579
Head 14.881637 -12.073418 10.160907
2393
root 2.848831 13.268589 -3.265667 -23.213974 5.733622 4.666212
RightUpLeg -81.306479 -4.794287 -14.779470
RightLeg 135.743059 -0.000000 -0.000000
RightFoot -28.391426 -16.385740 19.235103
RightToeBase -5.860686 -0.000000 0.000000
LeftUpLeg -78.703682 -4.704531 -4.596430
LeftLeg 136.966852 -0.000000 -0.000000
LeftFoot -31.184557 11.587787 -22.841759
LeftToeBase -7.051103 -0.000000 0.000000
Spine 86.363365 0.651371 1.971016
RightShoulder 4.547466 -14.902077 -11.500209
RightArm 43.487026 -20.464673 50.357474
RightForeArm 39.277347 0.000000 25.600955
RightHand 11.073692 -0.000000 0.939722
RightHandThumb1 -24.326973 -0.000000 -32.862282
LeftShoulder 30.789070 5.940875 34.248837
LeftArm 37.132677 1.036856 -77.374256
LeftForeArm 11.960044 -0.000000 23.517232
LeftHand -11.198732 -0.000000 -4.499876
LeftHandThumb1 -26.253704 0.000000 33.147579
Head 13.445154 -11.804570 10.036526
2394
root 2.837749 13.420443 -3.327782 -22.009171 5.686596 4.716918
RightUpLeg -81.026077 -4.824597 -14.992246
RightLeg 134.937143 -0.000000 -0.000000
RightFoot -30.541179 -13.801290 24.725772
RightToeBase -0.646860 -0.000000 0.000000
LeftUpLeg -78.240914 -4.649470 -4.443120
LeftLeg 135.864993 -0.000000 -0.000000
LeftFoot -33.837978 9.793696 -23.617302
LeftToeBase -2.578739 -0.000000 0.000000
Spine 86.818198 0.455440 1.708481
RightShoulder 4.710145 -14.347551 -11.743738
RightArm 42.967050 -19.699770 50.684203
RightForeArm 38.843749 -0.000000 26.587409
RightHand 11.184208 -0.000000 1.379629
RightHandThumb1 -24.326973 -0.000000 -32.862282
LeftShoulder 30.457929 5.816938 34.220196
LeftArm 37.082806 0.878597 -76.590147
LeftForeArm 10.971390 -0.000000 24.296890
LeftHand -10.734045 0.000000 -4.872039
LeftHandThumb1 -26.253704 0.000000 33.147579
Head 12.048495 -11.309637 9.761572
